<?xml version="1.0" encoding="iso-8859-1"?>
<!-- Generator: Adobe Illustrator 19.0.0, SVG Export Plug-In . SVG Version: 6.00 Build 0)  -->
<svg version="1.1" id="Layer_1" xmlns="http://www.w3.org/2000/svg" xmlns:xlink="http://www.w3.org/1999/xlink" x="0px" y="0px"
	 viewBox="0 0 496.158 496.158" style="enable-background:new 0 0 496.158 496.158;" xml:space="preserve">
<path style="fill:#D61E1E;" d="M248.082,0.003C111.07,0.003,0,111.063,0,248.085c0,137.001,111.07,248.07,248.082,248.07
	c137.006,0,248.076-111.069,248.076-248.07C496.158,111.062,385.088,0.003,248.082,0.003z"/>
<path style="fill:#F4EDED;" d="M248.082,39.002C132.609,39.002,39,132.602,39,248.084c0,115.463,93.609,209.072,209.082,209.072
	c115.467,0,209.076-93.609,209.076-209.072C457.158,132.602,363.549,39.002,248.082,39.002z"/>
<path style="fill:#5B5147;" d="M229.76,145.968c-11.729,55.089-21.56,112.083-33.004,167.453
	c-20.182-29.28-100.661-25.279-99.005,18.333c1.647,43.566,87.729,44.35,102.673,9.781c4.224-9.777,5.084-24.642,7.331-36.666
	c7.512-40.204,13.895-75.18,22.005-113.676c53.813,3.603,109.836-0.904,151.557-13.443c-7.973,41.735-15.303,84.108-24.441,124.672
	c-19.125-30.226-106.605-25.805-97.779,23.223c6.951,38.661,89.275,37.34,101.448,4.887c9.54-25.437,12.553-64.192,19.554-99.005
	c7.463-37.082,15.316-76.836,18.337-101.449C348.56,141.439,291.516,150.363,229.76,145.968z"/>
<path style="fill:#D61E1E;" d="M85.85,60.394c-9.086,7.86-17.596,16.37-25.456,25.456l349.914,349.914
	c9.086-7.861,17.596-16.37,25.456-25.456L85.85,60.394z"/>
<g>
</g>
<g>
</g>
<g>
</g>
<g>
</g>
<g>
</g>
<g>
</g>
<g>
</g>
<g>
</g>
<g>
</g>
<g>
</g>
<g>
</g>
<g>
</g>
<g>
</g>
<g>
</g>
<g>
</g>
</svg>
